# xmcd
#
# Track frame offsets: 
#        150
#        14675
#        29785
#        43595
#        61860
#        76850
#        93532
#        111450
#        124612
#        138062
#        156467
#        170632
#        187500
#        203882
#
# Disc length: 2986 seconds
#
# Revision: 3
# Processed by: cddbd v1.5.2PL0 Copyright (c) Steve Scherf et al.
# Submitted via: ExactAudioCopy v0.95a5
#
DISCID=bc0ba80e
DTITLE=Various Artist - HOT HITS COUNTRY VOL 40
DYEAR=1900
DGENRE=Country
TTITLE0=WADE HAYES - OLD ENOUGH TO KNOW BETTER
TTITLE1=GEORGE STRAIT - YOU CAN'T MAKE A HEART LOVE SOMEBODY
TTITLE2=PATTY LOVELESS - HERE I AM
TTITLE3=LITTLE TEXAS - AMY'S BACK IN AUSTIN
TTITLE4=JOHN and AUDREY WIGGINS - SHE'S IN THE BEDROOM CRYING
TTITLE5=JAMES HOUSE - LITTLE BY LITTLE
TTITLE6=KEN MELLONS - I CAN BRING HER BACK
TTITLE7=COLLIN RAYE - MY KIND OF GIRL
TTITLE8=AMIE COMEAUX - WHO'S SHE TO YOU
TTITLE9=SHENANDOAH W ALLISON KRAUSS - SOMEWHERE IN THE VICINITY OF THE
TTITLE9=HEART
TTITLE10=BRYAN WHITE - LOOK AT ME NOW
TTITLE11=BLACKHAWK - DOWN IN FLAMES
TTITLE12=JED ZEPPELIN - WORKIN MAN BLUES
TTITLE13=TOBY KEITH - UPSTAIRS DOWNTOWN
EXTD=
EXTT0=Hayes - Wade
EXTT1=Strait - George
EXTT2=Loveless - Patty
EXTT3=Little Texas
EXTT4=Wiggins - John and Audrey
EXTT5=James House
EXTT6=Mellons - Ken
EXTT7=Raye - Collin
EXTT8=Comeaux - Arnie
EXTT9=Shenandoah
EXTT10=White - Bryan
EXTT11=Blackhawk
EXTT12=Led Zepplin
EXTT13=Keith - Toby
PLAYORDER=
